<?xml version="1.0" encoding="UTF-8" standalone="no"?>
<!-- Created with Inkscape (http://www.inkscape.org/) -->

<svg
   xmlns:dc="http://purl.org/dc/elements/1.1/"
   xmlns:cc="http://creativecommons.org/ns#"
   xmlns:rdf="http://www.w3.org/1999/02/22-rdf-syntax-ns#"
   xmlns:svg="http://www.w3.org/2000/svg"
   xmlns="http://www.w3.org/2000/svg"
   xmlns:sodipodi="http://sodipodi.sourceforge.net/DTD/sodipodi-0.dtd"
   xmlns:inkscape="http://www.inkscape.org/namespaces/inkscape"
   version="1.1"
   id="svg815"
   width="168"
   height="149.33333"
   viewBox="0 0 168 149.33333"
   sodipodi:docname="traffic.svg"
   inkscape:version="0.92.2 (5c3e80d, 2017-08-06)">
  <metadata
     id="metadata821">
    <rdf:RDF>
      <cc:Work
         rdf:about="">
        <dc:format>image/svg+xml</dc:format>
        <dc:type
           rdf:resource="http://purl.org/dc/dcmitype/StillImage" />
        <dc:title></dc:title>
      </cc:Work>
    </rdf:RDF>
  </metadata>
  <defs
     id="defs819" />
  <sodipodi:namedview
     pagecolor="#ffffff"
     bordercolor="#666666"
     borderopacity="1"
     objecttolerance="10"
     gridtolerance="10"
     guidetolerance="10"
     inkscape:pageopacity="0"
     inkscape:pageshadow="2"
     inkscape:window-width="1366"
     inkscape:window-height="705"
     id="namedview817"
     showgrid="false"
     inkscape:zoom="3.6618112"
     inkscape:cx="84.080619"
     inkscape:cy="53.914147"
     inkscape:window-x="-8"
     inkscape:window-y="-8"
     inkscape:window-maximized="1"
     inkscape:current-layer="layer2" />
  <g
     inkscape:groupmode="layer"
     id="layer1"
     inkscape:label="Original"
     style="display:none" />
  <g
     inkscape:groupmode="layer"
     id="layer2"
     inkscape:label="Trace">
    <path
       style="opacity:1;fill:#f60909;fill-opacity:1;stroke:#f60909;stroke-width:1px;stroke-linecap:butt;stroke-linejoin:miter;stroke-opacity:1"
       d="m 83.433594,1.7285156 c -2.649089,-0.026072 -4.969755,1.1356928 -6.259766,3.84375 L 1.671875,135.68164 c -1.3468109,7.1292 3.9109416,10.25344 8.357422,11.42188 L 161.5918,146.54688 c 6.05148,-3.73987 6.38637,-9.3553 2.78711,-15.32227 L 91.662109,5.015625 C 89.060913,2.9690704 86.082682,1.7545878 83.433594,1.7285156 Z M 84.139362,17.552851 154.62718,135.12431 15.601796,134.84559 Z"
       id="path827"
       inkscape:connector-curvature="0"
       sodipodi:nodetypes="sccccccscccc" />
    <path
       style="fill:#000000;fill-opacity:0.94509804;stroke:#010001;stroke-width:0;stroke-linecap:butt;stroke-linejoin:miter;stroke-opacity:0.55801104;stroke-miterlimit:4;stroke-dasharray:none"
       d="m 66.865669,78.288555 -10.02985,5.014925 c -1.14604,1.721434 -3.269875,2.496673 -0.835821,2.786069 6.345551,-2.371056 8.13542,-2.975561 10.865671,-3.900497 l 4.736319,0.835821 0.835821,2.786069 c -1.931931,0.511011 -6.382204,5.281045 -5.850747,8.079602 -4.253916,8.278286 9.292388,17.863866 18.38806,24.796026 7.635173,2.64911 15.313658,2.90463 22.288548,0 10.16438,-4.605 10.25879,-5.2971 10.58707,-5.29354 4.53947,0.2675 9.58144,1.0375 10.58707,-2.22885 -3.77985,-1.65837 -0.97509,0.60417 -11.14428,-4.73632 l 0.83582,-3.06468 c -7.47593,-0.77543 -14.5887,-13.114034 -23.681592,-15.880596 -3.287362,-1.000198 -10.308457,0 -10.308457,0 v 0 C 90.042848,64.891418 63.139782,69.576116 66.865669,78.288555 Z"
       id="path832"
       inkscape:connector-curvature="0"
       sodipodi:nodetypes="cccccccccccccaccc" />
    <path
       style="fill:none;stroke:#000000;stroke-width:1.39890194;stroke-linecap:round;stroke-linejoin:round;stroke-miterlimit:4;stroke-dasharray:none;stroke-opacity:1"
       d="m 98.906742,120.72665 -3.068776,7.96308 -5.559551,0.57428"
       id="path836"
       inkscape:connector-curvature="0"
       sodipodi:nodetypes="ccc" />
    <path
       style="fill:none;stroke:#000000;stroke-width:1.37952756;stroke-linecap:round;stroke-linejoin:miter;stroke-opacity:1;stroke-miterlimit:4;stroke-dasharray:none"
       d="m 95.004972,120.91542 -2.228856,4.73632 h -7.800995"
       id="path838"
       inkscape:connector-curvature="0" />
  </g>
</svg>
