<svg xmlns="http://www.w3.org/2000/svg" width="168" height="149.333" viewBox="0 0 168 149.333"><path d="M83.434 1.729c-2.65-.027-4.97 1.135-6.26 3.843L1.672 135.682c-1.347 7.129 3.91 10.253 8.357 11.422l151.563-.557c6.051-3.74 6.386-9.355 2.787-15.322L91.662 5.015c-2.601-2.046-5.58-3.26-8.228-3.286Zm.705 15.824 70.488 117.571-139.025-.278Z" style="opacity:1;fill:#f60909;fill-opacity:1;stroke:#f60909;stroke-width:1px;stroke-linecap:butt;stroke-linejoin:miter;stroke-opacity:1"/><path d="m66.866 78.289-10.03 5.014C55.69 85.025 53.566 85.8 56 86.09c6.346-2.372 8.135-2.976 10.866-3.9l4.736.835.836 2.786c-1.932.511-6.382 5.281-5.85 8.08-4.255 8.278 9.291 17.863 18.387 24.796 7.635 2.649 15.314 2.904 22.289 0 10.164-4.605 10.258-5.298 10.587-5.294 4.54.268 9.581 1.038 10.587-2.229-3.78-1.658-.975.604-11.144-4.736l.835-3.065c-7.476-.775-14.588-13.114-23.681-15.88-3.288-1-10.309 0-10.309 0 5.904-22.592-21-17.907-17.273-9.194Z" style="fill:#000;fill-opacity:.94509804;stroke:#010001;stroke-width:0;stroke-linecap:butt;stroke-linejoin:miter;stroke-opacity:.55801104;stroke-miterlimit:4;stroke-dasharray:none"/><path d="m98.907 120.727-3.069 7.963-5.56.574" style="fill:none;stroke:#000;stroke-width:1.39890194;stroke-linecap:round;stroke-linejoin:round;stroke-miterlimit:4;stroke-dasharray:none;stroke-opacity:1"/><path d="m95.005 120.915-2.229 4.737h-7.8" style="fill:none;stroke:#000;stroke-width:1.37952756;stroke-linecap:round;stroke-linejoin:miter;stroke-opacity:1;stroke-miterlimit:4;stroke-dasharray:none"/></svg>